<svg width="11" height="8" viewBox="0 0 11 8" fill="none" xmlns="http://www.w3.org/2000/svg">
<path d="M0.00018695 1.32333C-0.00334302 1.16283 0.0431822 1.00523 0.133366 0.872421C0.22355 0.739613 0.352935 0.638204 0.503416 0.582292C0.653898 0.52638 0.818039 0.518744 0.973062 0.560445C1.12808 0.602146 1.2662 0.691112 1.36832 0.814974L5.41705 5.54101L9.46436 0.814974C9.52733 0.729293 9.60728 0.657536 9.69927 0.604199C9.79126 0.550862 9.8933 0.517093 9.99894 0.505006C10.1046 0.49292 10.2116 0.502777 10.3132 0.533959C10.4149 0.565142 10.509 0.616978 10.5897 0.686222C10.6704 0.755467 10.7359 0.840628 10.7822 0.936371C10.8284 1.03212 10.8544 1.13638 10.8585 1.24264C10.8626 1.34889 10.8448 1.45485 10.806 1.55387C10.7673 1.65289 10.7085 1.74285 10.6334 1.81811L6.00384 7.22899C5.93133 7.31396 5.84132 7.3822 5.73989 7.42898C5.63845 7.47577 5.52805 7.5 5.41634 7.5C5.30463 7.5 5.19423 7.47577 5.09279 7.42898C4.99135 7.3822 4.90126 7.31396 4.82875 7.22899L0.194744 1.81811C0.0733344 1.68142 0.0044883 1.5061 0.00018695 1.32333Z" fill="black"/>
</svg>
