<svg width="10" height="10" viewBox="0 0 10 10" fill="none" xmlns="http://www.w3.org/2000/svg">
<path d="M5.88439 5.00038L9.81676 1.06801C10.0611 0.823902 10.0611 0.42783 9.81676 0.183724C9.57245 -0.0605903 9.17679 -0.0605903 8.93248 0.183724L5.0001 4.1161L1.06752 0.183724C0.823206 -0.0605903 0.42755 -0.0605903 0.183236 0.183724C-0.0610786 0.42783 -0.0610786 0.823902 0.183236 1.06801L4.11582 5.00038L0.183236 8.93276C-0.0610786 9.17686 -0.0610786 9.57294 0.183236 9.81704C0.305393 9.93899 0.46549 10.0001 0.625378 10.0001C0.785266 10.0001 0.945363 9.93899 1.06752 9.81683L5.0001 5.88446L8.93248 9.81683C9.05464 9.93899 9.21473 10.0001 9.37462 10.0001C9.53451 10.0001 9.69461 9.93899 9.81676 9.81683C10.0611 9.57273 10.0611 9.17666 9.81676 8.93255L5.88439 5.00038Z" fill="black"/>
</svg>
