<svg width="15" height="15" viewBox="0 0 15 15" fill="none" xmlns="http://www.w3.org/2000/svg">
<g clip-path="url(#clip0_3_230)">
<path d="M9.26331 2.51953L1.0101 10.7733C0.968576 10.815 0.938595 10.8676 0.924318 10.9241L0.00952848 14.5958C-0.0178355 14.7064 0.0146444 14.8239 0.0953086 14.9046C0.156342 14.9656 0.239505 14.9994 0.324571 14.9994C0.350626 14.9994 0.377277 14.9962 0.403213 14.9897L4.07498 14.0747C4.13221 14.0605 4.1842 14.0306 4.22572 13.9891L12.4796 5.73587L9.26331 2.51953Z" fill="black"/>
<path d="M14.5243 1.39415L13.6056 0.475432C12.9916 -0.138592 11.9214 -0.137997 11.3081 0.475432L10.1827 1.6008L13.399 4.81702L14.5243 3.69165C14.831 3.38506 15 2.97697 15 2.54296C15 2.10894 14.831 1.70086 14.5243 1.39415Z" fill="black"/>
</g>
<defs>
<clipPath id="clip0_3_230">
<rect width="15" height="15" fill="white"/>
</clipPath>
</defs>
</svg>
