<svg width="50" height="50" viewBox="0 0 50 50" fill="none" xmlns="http://www.w3.org/2000/svg">
<g clip-path="url(#clip0_73_2721)">
<path d="M22.5492 24.7432C23.8548 25.6136 26.1456 25.6137 27.4515 24.7431C27.4517 24.743 27.452 24.7428 27.4522 24.7427L49.7048 9.90755C48.9749 7.79659 46.9686 6.27588 44.6127 6.27588H5.38754C3.03156 6.27588 1.0254 7.79659 0.29541 9.90755L22.5485 24.7428C22.5488 24.743 22.549 24.743 22.5492 24.7432Z" fill="black"/>
<path d="M29.077 27.1807C29.0767 27.1809 29.0765 27.1811 29.0763 27.1812C27.9335 27.943 26.4665 28.3239 25 28.3239C23.5332 28.3239 22.0668 27.9431 20.9239 27.1811C20.9237 27.181 20.9236 27.1809 20.9234 27.1808L0 13.2319V38.3368C0 41.3073 2.41672 43.7239 5.38735 43.7239H44.6128C47.5834 43.7239 50 41.3073 50 38.3368V13.2319L29.077 27.1807Z" fill="black"/>
</g>
<defs>
<clipPath id="clip0_73_2721">
<rect width="50" height="50" fill="white"/>
</clipPath>
</defs>
</svg>
