<svg width="756" height="620" viewBox="0 0 756 620" fill="none" xmlns="http://www.w3.org/2000/svg">
<path fill-rule="evenodd" clip-rule="evenodd" d="M1045 215C1045 331.367 1009.79 475.314 1017.99 591.391C1018.66 600.841 1019 610.381 1019 620C1019 840.914 839.914 1020 619 1020C485.32 1020 366.956 954.423 294.322 853.684C264.285 812.023 197.86 797 146.5 797C65.5903 797 0 731.41 0 650.5C0 569.59 65.5903 504 146.5 504C188.754 504 240.03 484.852 258.351 446.777C321.693 315.14 454.983 223.513 610.021 220.099C612.782 220.038 615 217.761 615 215C615 96.2588 711.259 0 830 0C948.741 0 1045 96.2588 1045 215Z" fill="#F9B134"/>
</svg>
