<svg width="8" height="12" viewBox="0 0 8 12" fill="none" xmlns="http://www.w3.org/2000/svg">
<path d="M6.66448 11.8582C6.83765 11.862 7.0077 11.8118 7.151 11.7145C7.2943 11.6172 7.40372 11.4776 7.46404 11.3152C7.52437 11.1529 7.53261 10.9758 7.48761 10.8085C7.44262 10.6412 7.34663 10.4922 7.21298 10.382L2.1137 6.01353L7.21299 1.64658C7.30543 1.57864 7.38286 1.49237 7.44041 1.39312C7.49796 1.29386 7.53439 1.18376 7.54743 1.06978C7.56047 0.955788 7.54984 0.840359 7.51619 0.730671C7.48255 0.620983 7.42662 0.51939 7.35191 0.43232C7.27719 0.345248 7.18531 0.274618 7.082 0.224704C6.9787 0.174788 6.8662 0.146753 6.75155 0.14233C6.6369 0.137907 6.52258 0.157137 6.41573 0.198944C6.30889 0.24075 6.21183 0.304166 6.13063 0.385221L0.292412 5.3804C0.200729 5.45864 0.127109 5.55575 0.0766259 5.66519C0.0261436 5.77464 1.95196e-06 5.89377 1.94142e-06 6.0143C1.93088e-06 6.13483 0.0261436 6.25395 0.0766258 6.3634C0.127109 6.47285 0.200729 6.57005 0.292412 6.64829L6.13063 11.6483C6.27811 11.7793 6.46728 11.8536 6.66448 11.8582Z" fill="black"/>
</svg>
