<svg width="38" height="50" viewBox="0 0 38 50" fill="none" xmlns="http://www.w3.org/2000/svg">
<path d="M18.9993 0C8.85014 0 0.592285 8.25786 0.592285 18.408C0.592285 21.0555 1.13418 23.5834 2.2021 25.9218C6.80436 35.9927 15.6282 46.6253 18.2235 49.6439C18.418 49.8695 18.7014 49.9995 18.9998 49.9995C19.2981 49.9995 19.5816 49.8695 19.776 49.6439C22.3704 46.6258 31.1941 35.9937 35.7979 25.9218C36.8664 23.5834 37.4078 21.0555 37.4078 18.408C37.4067 8.25786 29.1489 0 18.9993 0ZM18.9993 27.9692C13.7272 27.9692 9.43758 23.6796 9.43758 18.4075C9.43758 13.1349 13.7272 8.84529 18.9993 8.84529C24.2713 8.84529 28.5609 13.1349 28.5609 18.4075C28.5614 23.6796 24.2718 27.9692 18.9993 27.9692Z" fill="black"/>
</svg>
