<svg width="50" height="50" viewBox="0 0 50 50" fill="none" xmlns="http://www.w3.org/2000/svg">
<path fill-rule="evenodd" clip-rule="evenodd" d="M49.086 43.9803C48.754 44.3112 48.3536 44.7345 47.929 45.1821C46.8697 46.3064 45.5462 47.7041 44.7167 48.2709C40.3525 51.2531 34.5138 49.8262 30.3838 48.1054C24.9357 45.8354 19.0041 41.6512 13.6783 36.3246C8.34741 30.9977 4.16362 25.0643 1.8936 19.6192C0.174848 15.4884 -1.25513 9.64853 1.72758 5.2833C2.29399 4.45322 3.69487 3.13184 4.81772 2.07041C5.26694 1.64717 5.68686 1.24727 6.01889 0.916308C6.60837 0.329762 7.40611 0.000488281 8.23769 0.000488281C9.06927 0.000488281 9.86701 0.329762 10.4565 0.916308L18.4866 8.94404C19.0728 9.53349 19.4019 10.331 19.4019 11.1624C19.4019 11.9937 19.0728 12.7912 18.4866 13.3807L16.2991 15.5638C15.5685 16.289 15.0917 17.2307 14.9395 18.2488C14.7873 19.2668 14.9679 20.3068 15.4544 21.214C18.4632 26.8927 23.1082 31.5369 28.7874 34.5447C29.6944 35.0311 30.7342 35.2115 31.752 35.059C32.7697 34.9066 33.711 34.4295 34.4357 33.6987L36.6178 31.5155C37.2073 30.929 38.005 30.5997 38.8366 30.5997C39.6682 30.5997 40.4659 30.929 41.0554 31.5155L49.086 39.5446C49.6722 40.1339 50.0013 40.9313 50.0013 41.7625C50.0013 42.5936 49.6722 43.391 49.086 43.9803Z" fill="black"/>
</svg>
