<svg width="16" height="21" viewBox="0 0 16 21" fill="none" xmlns="http://www.w3.org/2000/svg">
<path d="M4.97669 15.2576H1.0252C0.460262 15.2576 0.157045 15.9465 0.569169 16.3588L4.52065 20.3102C4.92709 20.7166 5.62183 20.4267 5.62183 19.8542V15.9027C5.62183 15.5463 5.33313 15.2576 4.97669 15.2576ZM13.6861 0.5H2.31548C1.24657 0.5 0.380062 1.3665 0.380062 2.43542V14.0669C0.380062 14.4241 0.670376 14.7133 1.02803 14.712C1.62155 14.7096 2.83563 14.7133 5.38676 14.7133C5.81739 14.7133 6.16617 15.062 6.16617 15.4927C6.16617 18.0442 6.1698 19.2579 6.16738 19.8514C6.16617 20.209 6.45527 20.4994 6.81252 20.4994H13.6861C14.755 20.4994 15.6215 19.6329 15.6215 18.5639V2.43542C15.6215 1.3665 14.755 0.5 13.6861 0.5ZM7.97417 2.53098C9.17171 2.53098 10.1459 3.50515 10.1459 4.70269C10.1459 5.89983 9.17171 6.87399 7.97417 6.87399C6.77703 6.87399 5.80287 5.89983 5.80287 4.70269C5.80287 3.50515 6.77703 2.53098 7.97417 2.53098ZM4.70775 9.14932C4.70775 8.59167 5.03677 8.08403 5.54602 7.85662C6.67079 7.3545 6.65381 7.34373 6.83227 7.34373H9.10156C9.28312 7.34373 9.27566 7.35994 10.3878 7.85662C10.8975 8.08403 11.2265 8.59167 11.2265 9.14932V10.034C11.2265 10.3904 10.9378 10.6791 10.5813 10.6791H5.35289C4.99645 10.6791 4.70775 10.3904 4.70775 10.034V9.14932ZM11.6297 17.4753H7.87982C7.52338 17.4753 7.23468 17.1866 7.23468 16.8301C7.23468 16.4737 7.52338 16.185 7.87982 16.185H11.6297C11.9861 16.185 12.2748 16.4737 12.2748 16.8301C12.2748 17.1866 11.9861 17.4753 11.6297 17.4753ZM11.6297 13.7657H4.33155C3.97511 13.7657 3.68641 13.477 3.68641 13.1206C3.68641 12.7641 3.97511 12.4754 4.33155 12.4754H11.6297C11.9861 12.4754 12.2748 12.7641 12.2748 13.1206C12.2748 13.477 11.9861 13.7657 11.6297 13.7657Z" fill="white"/>
</svg>
