<svg width="8" height="12" viewBox="0 0 8 12" fill="none" xmlns="http://www.w3.org/2000/svg">
<path d="M1.33553 11.8582C1.16236 11.862 0.992303 11.8118 0.849007 11.7145C0.705711 11.6172 0.596293 11.4776 0.535965 11.3152C0.475638 11.1529 0.467399 10.9758 0.512393 10.8085C0.557387 10.6412 0.653379 10.4922 0.787023 10.382L5.88631 6.01353L0.787022 1.64658C0.694574 1.57864 0.617151 1.49237 0.559601 1.39312C0.502052 1.29386 0.465616 1.18376 0.452574 1.06978C0.439533 0.955788 0.450169 0.840359 0.483814 0.730671C0.517459 0.620983 0.573389 0.51939 0.648102 0.43232C0.722815 0.345248 0.814702 0.274618 0.918007 0.224704C1.02131 0.174788 1.13381 0.146753 1.24846 0.14233C1.3631 0.137907 1.47743 0.157137 1.58427 0.198944C1.69112 0.24075 1.78818 0.304166 1.86938 0.385221L7.7076 5.3804C7.79928 5.45864 7.8729 5.55575 7.92338 5.66519C7.97386 5.77464 8.00001 5.89377 8.00001 6.0143C8.00001 6.13483 7.97386 6.25395 7.92338 6.3634C7.8729 6.47285 7.79928 6.57005 7.7076 6.64829L1.86938 11.6483C1.7219 11.7793 1.53273 11.8536 1.33553 11.8582Z" fill="black"/>
</svg>
