<svg width="20" height="20" viewBox="0 0 20 20" fill="none" xmlns="http://www.w3.org/2000/svg">
<path d="M19.4008 12.1917L17.5624 10.7542C17.5858 10.5325 17.6058 10.2734 17.6058 9.99918C17.6058 9.725 17.5866 9.46586 17.5624 9.24418L19.4024 7.80586C19.7441 7.53586 19.8374 7.05668 19.6199 6.65754L17.7083 3.35C17.5041 2.97668 17.0566 2.785 16.6024 2.9525L14.4333 3.82332C14.0174 3.52332 13.5816 3.27 13.1308 3.0675L12.8008 0.76668C12.7466 0.33 12.3666 0 11.9174 0H8.08413C7.63495 0 7.25581 0.33 7.20245 0.76L6.87163 3.06918C6.43495 3.26586 6.00581 3.51586 5.57163 3.825L3.39663 2.95168C2.98909 2.79418 2.50159 2.97082 2.29909 3.3425L0.384948 6.65418C0.159128 7.03586 0.252448 7.53168 0.601628 7.80836L2.43995 9.24586C2.41077 9.52668 2.39663 9.77086 2.39663 10C2.39663 10.2292 2.41081 10.4734 2.43995 10.755L0.599948 12.1934C0.258268 12.4642 0.165768 12.9434 0.383268 13.3417L2.29495 16.6492C2.49913 17.0217 2.94245 17.215 3.40077 17.0467L5.56995 16.1759C5.98495 16.475 6.42077 16.7284 6.87163 16.9317L7.20163 19.2317C7.25577 19.67 7.63495 20 8.08495 20H11.9183C12.3674 20 12.7474 19.67 12.8008 19.24L13.1316 16.9317C13.5683 16.7342 13.9966 16.485 14.4316 16.175L16.6066 17.0483C16.7116 17.0891 16.8208 17.11 16.9333 17.11C17.2566 17.11 17.5541 16.9333 17.7041 16.6583L19.6241 13.3333C19.8374 12.9433 19.7441 12.4642 19.4008 12.1917ZM10.0008 13.3333C8.16245 13.3333 6.66745 11.8383 6.66745 10C6.66745 8.16168 8.16245 6.66668 10.0008 6.66668C11.8391 6.66668 13.3341 8.16168 13.3341 10C13.3341 11.8383 11.8391 13.3333 10.0008 13.3333Z" fill="white"/>
</svg>
