<svg width="14" height="19" viewBox="0 0 14 19" fill="none" xmlns="http://www.w3.org/2000/svg">
<path d="M13.4762 3.875H10.75V1.14869C10.9785 1.323 13.3018 3.64613 13.4762 3.875ZM7.10744 2C7.56147 2.00223 8.00979 2.10139 8.4224 2.29085C8.83501 2.48032 9.20241 2.75572 9.5 3.09863V0.75H4.5C4.11351 0.751186 3.73686 0.871978 3.42177 1.09579C3.10668 1.3196 2.86859 1.63546 2.74019 2H7.10744ZM11.5267 5.125C11.8696 5.42265 12.1449 5.79011 12.3344 6.20278C12.5238 6.61545 12.6229 7.06382 12.625 7.51787V15.6348C12.9895 15.5064 13.3054 15.2683 13.5292 14.9532C13.753 14.6381 13.8738 14.2615 13.875 13.875V5.125H11.5267ZM8.25 3.64869V6.375H10.9762C10.9278 6.3125 8.3125 3.69706 8.25 3.64869ZM8.25 7.625C7.91858 7.62467 7.60083 7.49287 7.36648 7.25852C7.13213 7.02417 7.00033 6.70642 7 6.375V3.25H2C1.50289 3.25055 1.02629 3.44827 0.674778 3.79978C0.323265 4.15129 0.125546 4.62789 0.125 5.125V16.375C0.125546 16.8721 0.323265 17.3487 0.674778 17.7002C1.02629 18.0517 1.50289 18.2495 2 18.25H9.5C9.99711 18.2495 10.4737 18.0517 10.8252 17.7002C11.1767 17.3487 11.3745 16.8721 11.375 16.375V7.625H8.25ZM8.25 14.5H3.25C3.08424 14.5 2.92527 14.4342 2.80806 14.3169C2.69085 14.1997 2.625 14.0408 2.625 13.875C2.625 13.7092 2.69085 13.5503 2.80806 13.4331C2.92527 13.3158 3.08424 13.25 3.25 13.25H8.25C8.41576 13.25 8.57473 13.3158 8.69194 13.4331C8.80915 13.5503 8.875 13.7092 8.875 13.875C8.875 14.0408 8.80915 14.1997 8.69194 14.3169C8.57473 14.4342 8.41576 14.5 8.25 14.5ZM8.25 12H3.25C3.08424 12 2.92527 11.9342 2.80806 11.8169C2.69085 11.6997 2.625 11.5408 2.625 11.375C2.625 11.2092 2.69085 11.0503 2.80806 10.9331C2.92527 10.8158 3.08424 10.75 3.25 10.75H8.25C8.41576 10.75 8.57473 10.8158 8.69194 10.9331C8.80915 11.0503 8.875 11.2092 8.875 11.375C8.875 11.5408 8.80915 11.6997 8.69194 11.8169C8.57473 11.9342 8.41576 12 8.25 12ZM8.25 9.5H3.25C3.08424 9.5 2.92527 9.43415 2.80806 9.31694C2.69085 9.19973 2.625 9.04076 2.625 8.875C2.625 8.70924 2.69085 8.55027 2.80806 8.43306C2.92527 8.31585 3.08424 8.25 3.25 8.25H8.25C8.41576 8.25 8.57473 8.31585 8.69194 8.43306C8.80915 8.55027 8.875 8.70924 8.875 8.875C8.875 9.04076 8.80915 9.19973 8.69194 9.31694C8.57473 9.43415 8.41576 9.5 8.25 9.5Z" fill="#007AFF"/>
</svg>
