<svg width="36" height="36" viewBox="0 0 36 36" fill="none" xmlns="http://www.w3.org/2000/svg">
<g clip-path="url(#clip0_150_2680)">
<path d="M9.79629 8.30495L6.81349 5.32215C6.40153 4.91019 5.73405 4.91019 5.32209 5.32215C4.91013 5.73412 4.91013 6.40159 5.32209 6.81355L8.30489 9.79635C8.71685 10.2083 9.38433 10.2083 9.79629 9.79635C10.2082 9.38439 10.2082 8.71691 9.79629 8.30495Z" fill="white"/>
<path d="M5.34375 16.9453H1.05469C0.471727 16.9453 0 17.417 0 18C0 18.583 0.471727 19.0547 1.05469 19.0547H5.34375C5.92671 19.0547 6.39844 18.583 6.39844 18C6.39844 17.417 5.92671 16.9453 5.34375 16.9453Z" fill="white"/>
<path d="M34.9453 16.9453H30.6562C30.0733 16.9453 29.6016 17.417 29.6016 18C29.6016 18.583 30.0733 19.0547 30.6562 19.0547H34.9453C35.5283 19.0547 36 18.583 36 18C36 17.417 35.5283 16.9453 34.9453 16.9453Z" fill="white"/>
<path d="M30.6779 5.32215C30.266 4.91019 29.5985 4.91019 29.1865 5.32215L26.2037 8.30495C25.7918 8.71691 25.7918 9.38439 26.2037 9.79635C26.6157 10.2083 27.2832 10.2083 27.6951 9.79635L30.6779 6.81355C31.0899 6.40159 31.0899 5.73419 30.6779 5.32215Z" fill="white"/>
<path d="M18 0C17.417 0 16.9453 0.471727 16.9453 1.05469V5.34375C16.9453 5.92671 17.417 6.39844 18 6.39844C18.583 6.39844 19.0547 5.92671 19.0547 5.34375V1.05469C19.0547 0.471727 18.583 0 18 0Z" fill="white"/>
<path d="M23.9063 10.5536C21.6071 8.73957 18.6328 8.08573 15.7219 8.78183C12.3469 9.5623 9.62586 12.2411 8.80313 15.5951C7.98047 18.97 8.92969 22.3872 11.3554 24.7708C12.2203 25.6357 12.7266 26.9927 12.7266 28.385V28.617C12.7266 29.2075 13.1906 29.6717 13.7813 29.6717H22.2188C22.8095 29.6717 23.2734 29.2075 23.2734 28.617V28.385C23.2734 27.0138 23.8008 25.6146 24.7289 24.7075C26.5009 22.9146 27.4922 20.531 27.4922 17.9998C27.4922 15.0889 26.1844 12.3677 23.9063 10.5536ZM18 14.8357C16.4088 14.8357 15.2505 15.8912 14.9472 17.113C14.8092 17.6687 14.25 18.0233 13.669 17.8834C13.1046 17.7434 12.7595 17.1707 12.8996 16.6063C13.4222 14.4969 15.4034 12.7264 18 12.7264C18.583 12.7264 19.0547 13.1981 19.0547 13.781C19.0547 14.364 18.583 14.8357 18 14.8357Z" fill="white"/>
<path d="M13.7812 31.7812V32.8359C13.7812 34.5807 15.2006 36 16.9453 36H19.0547C20.7994 36 22.2188 34.5807 22.2188 32.8359V31.7812H13.7812Z" fill="white"/>
</g>
<defs>
<clipPath id="clip0_150_2680">
<rect width="36" height="36" fill="white"/>
</clipPath>
</defs>
</svg>
